<svg width="75" height="28" viewBox="0 0 75 28" fill="none" xmlns="http://www.w3.org/2000/svg">
<g clip-path="url(#clip0_19_15)">
<path d="M62.5083 0.0294514C62.4475 0.0358543 62.217 0.0582638 61.9961 0.0742702C58.5418 0.371992 55.3341 1.80618 53.0644 4.07591C52.0784 5.06512 51.3357 6.08954 50.6922 7.35727C49.9335 8.85868 49.4757 10.4401 49.2676 12.2873C49.1588 13.2733 49.1748 14.9476 49.306 15.9848C50.1224 22.4611 54.8027 27.0038 61.5319 27.8617C62.4058 27.9738 63.0301 27.9994 64.301 27.9802C66.1578 27.9513 67.5952 27.7881 69.2663 27.4135C70.3547 27.1702 71.6576 26.7765 72.0962 26.5556C73.1399 26.0338 73.8794 24.9901 74.033 23.8216C74.0586 23.6392 74.065 22.173 74.0586 19.1061L74.049 14.6563L73.9626 14.3521C73.5624 12.9372 72.5956 12.0152 71.1518 11.6758C70.9309 11.6246 70.6012 11.6182 66.9997 11.6086L63.0845 11.5958V12.4538C63.0845 12.9276 63.1005 13.4366 63.1197 13.5838C63.3086 15.1173 64.3202 16.2793 65.8312 16.6955C66.0553 16.7595 66.177 16.7659 67.1278 16.7787L68.1746 16.7883L68.1682 19.2246L68.1586 21.6608L67.8225 21.7856C66.8909 22.1377 65.8377 22.3138 64.5187 22.3458C63.3022 22.3746 62.4571 22.2818 61.5159 22.0225C59.0156 21.3342 57.2197 19.5543 56.445 17.0028C55.9488 15.3638 55.8944 13.3245 56.3009 11.6694C56.4994 10.8659 56.8804 9.95033 57.3061 9.26205C58.4554 7.40849 60.3122 6.15357 62.4443 5.79182C62.9885 5.69898 63.4943 5.66697 64.141 5.68618C65.335 5.72139 66.3947 5.95509 67.3871 6.40327C67.9345 6.64977 68.117 6.7202 68.3827 6.79063C69.5608 7.10436 70.8413 6.79383 71.6929 5.9839C71.8049 5.87506 72.3427 5.27961 72.8902 4.65535L73.8858 3.52529L73.7257 3.38443C73.1879 2.90103 72.4964 2.40483 71.8753 2.04628C69.9674 0.945026 67.4767 0.227934 64.9253 0.0422573C64.5219 0.0134449 62.7836 0.0038414 62.5083 0.0294514Z" fill="#1964FF"/>
<path d="M3.23908 0.765757C1.67364 1.05387 0.498755 2.27038 0.274662 3.83902C0.249052 4.0215 0.242649 6.84826 0.249052 14.1921L0.258656 24.2922L0.348292 24.6124C0.466741 25.0477 0.764464 25.6368 1.03017 25.9665C1.5808 26.6548 2.32671 27.0966 3.22308 27.2695C3.45037 27.3111 4.0138 27.3175 7.57047 27.3175C10.0259 27.3175 11.8346 27.3047 12.1035 27.2855C15.1224 27.0646 17.4465 26.1938 18.9672 24.7116C19.5594 24.1322 19.9084 23.6616 20.2541 22.9669C20.7023 22.0705 20.9392 21.0525 20.9776 19.8744C21.0032 18.9684 20.9104 18.261 20.6639 17.5086C19.9852 15.4406 18.2181 13.9424 15.8747 13.4494C15.6858 13.411 15.545 13.3661 15.545 13.3437C15.545 13.3245 15.6698 13.2605 15.8267 13.2029C18.4358 12.2201 19.8988 10.1872 19.8988 7.53974C19.8988 6.20799 19.5594 4.97229 18.9256 3.99589C17.8979 2.41764 15.9963 1.3516 13.4481 0.922621C12.2988 0.730541 12.4173 0.733744 7.76575 0.727341C4.14506 0.720938 3.45357 0.727341 3.23908 0.765757ZM11.0599 5.91347C12.3404 6.12796 13.096 6.56974 13.4609 7.31565C13.6242 7.64859 13.6882 7.97192 13.6882 8.43611C13.685 9.73585 13.0255 10.6226 11.7386 11.0548C11.5817 11.1092 11.2904 11.1828 11.0887 11.2181C10.7462 11.2853 10.6085 11.2885 8.59169 11.3013L6.45321 11.3141V8.57377V5.83344L8.59169 5.84625C10.4325 5.85585 10.7718 5.86545 11.0599 5.91347ZM11.4313 16.1225C13.208 16.3754 14.13 16.99 14.4629 18.1489C14.5269 18.3698 14.5365 18.4754 14.5365 18.962C14.5365 19.6183 14.4949 19.836 14.2836 20.2906C13.797 21.3246 12.6862 21.9233 10.9383 22.0993C10.7494 22.1185 9.71856 22.1313 8.53087 22.1313H6.45321V19.0869V16.0456L8.76777 16.0584C10.6405 16.0681 11.1463 16.0809 11.4313 16.1225Z" fill="#1964FF"/>
<path d="M34.0646 0.765757C33.2867 0.906614 32.5311 1.31638 32.0317 1.86061C31.7948 2.11671 31.5195 2.52008 31.4075 2.77618C31.3627 2.87542 29.9413 6.54733 28.251 10.9363C26.5575 15.3253 24.4542 20.7804 23.5738 23.0597C22.6935 25.3391 21.9668 27.231 21.9572 27.2599C21.9412 27.3143 22.0692 27.3175 24.3582 27.3175C26.407 27.3175 26.8136 27.3111 27.0345 27.2695C28.203 27.0454 29.1345 26.3475 29.6371 25.3167C29.7492 25.0862 30.0693 24.1386 30.7992 21.8912C35.5692 7.17799 35.1434 8.46172 35.2363 8.46172C35.3227 8.46172 35.1402 7.9143 39.6861 21.8432C40.2495 23.5783 40.7681 25.115 40.8354 25.259C41.0723 25.768 41.4756 26.261 41.9398 26.61C42.2407 26.8373 42.7978 27.1062 43.1883 27.2118L43.5085 27.3015L46.0951 27.3111C47.5165 27.3143 48.6786 27.3111 48.6786 27.3015C48.6786 27.2919 47.9135 25.2654 46.9787 22.794C46.0439 20.3258 43.9759 14.8612 42.3848 10.6546C40.7905 6.44489 39.4268 2.87222 39.3499 2.71536C38.9082 1.79338 38.0534 1.1051 36.9938 0.816978C36.6961 0.736944 36.664 0.733744 35.5052 0.727341C34.5704 0.720938 34.2663 0.727341 34.0646 0.765757Z" fill="#1964FF"/>
</g>
<defs>
<clipPath id="clip0_19_15">
<rect width="74.3077" height="28" fill="white"/>
</clipPath>
</defs>
</svg>
