<?xml version="1.0" encoding="utf-8"?>
<!-- Generator: Adobe Illustrator 26.3.1, SVG Export Plug-In . SVG Version: 6.00 Build 0)  -->
<svg version="1.1" id="Layer_1" xmlns="http://www.w3.org/2000/svg" xmlns:xlink="http://www.w3.org/1999/xlink" x="0px" y="0px"
	 viewBox="0 0 404.86 93.78" style="enable-background:new 0 0 404.86 93.78;" xml:space="preserve">
<style type="text/css">
	.st0{fill:#022256;}
	.st1{fill:#FF9F00;}
	.st2{fill:#06B38E;}
	.st3{fill:#FDCD3C;}
	.st4{fill:#FFFFFF;}
</style>
<g>
	<g>
		<g>
			<path class="st1" d="M398.03,75.2l-8.19-8.19c-3.61,7.41-9.51,13.51-16.76,17.38c-1.7,0.9-2.04,3.18-0.68,4.54l4.1,4.1
				c0.84,0.84,2.14,1,3.17,0.4C387.26,89.06,393.61,82.76,398.03,75.2z"/>
			<path class="st1" d="M354.83,2.22c26.36,0,47.8,21.45,47.8,47.8c0,7.48-1.77,14.85-5.13,21.5l-5-5
				c2.3-5.21,3.46-10.76,3.46-16.51c0-22.68-18.46-41.14-41.14-41.14c-5.75,0-11.3,1.16-16.51,3.46l-5-5
				C339.98,3.99,347.36,2.22,354.83,2.22 M354.83,0c-9.17,0-17.77,2.49-25.17,6.82l8.19,8.19c5.13-2.5,10.9-3.91,16.98-3.91
				c21.46,0,38.92,17.46,38.92,38.92c0,6.09-1.41,11.85-3.91,16.98l8.19,8.19c4.33-7.4,6.82-16,6.82-25.17
				C404.86,22.44,382.42,0,354.83,0L354.83,0z"/>
			<path class="st1" d="M337.85,15.02l-8.19-8.19c-7.56,4.42-13.86,10.77-18.23,18.37c-0.59,1.03-0.44,2.33,0.4,3.17l4.1,4.1
				c1.36,1.36,3.64,1.02,4.54-0.68C324.34,24.52,330.44,18.63,337.85,15.02z"/>
		</g>
		<g>
			<polygon class="st1" points="339.78,23.72 329.66,37.6 337.06,48.92 347.2,48.92 351.8,55.19 349.08,60.94 354.52,73.59 
				359.43,76.62 367.26,70.14 374.38,53 384.31,39.65 373.02,38.78 364.35,23.72 350.13,26.44 			"/>
			<polygon class="st1" points="374.7,64.6 371.56,67.01 371.04,71.53 369.68,73.07 371.14,74.22 375.32,65.86 			"/>
		</g>
	</g>
	<g>
		<path class="st0" d="M20.8,44.94v4.82h-7.57v20.29H7.57V49.76H0v-4.82H20.8z"/>
		<path class="st0" d="M24.06,70.05V42.8l5.4-0.87v9.13c0.36-0.12,0.83-0.24,1.39-0.34c0.57-0.11,1.12-0.16,1.65-0.16
			c1.54,0,2.83,0.21,3.86,0.63c1.03,0.42,1.85,1.02,2.46,1.79c0.62,0.77,1.05,1.69,1.3,2.75c0.25,1.06,0.38,2.25,0.38,3.55v10.76
			h-5.4V59.94c0-1.74-0.22-2.97-0.67-3.7c-0.45-0.72-1.27-1.09-2.48-1.09c-0.48,0-0.94,0.04-1.36,0.13
			c-0.42,0.08-0.8,0.18-1.14,0.27v14.49H24.06z"/>
		<path class="st0" d="M44.49,60.66c0-1.69,0.26-3.17,0.78-4.44s1.2-2.32,2.05-3.17c0.85-0.85,1.82-1.49,2.92-1.92
			c1.1-0.44,2.23-0.65,3.39-0.65c2.71,0,4.84,0.83,6.41,2.48c1.57,1.66,2.36,4.09,2.36,7.3c0,0.31-0.01,0.66-0.04,1.03
			c-0.02,0.38-0.05,0.71-0.07,1H50.04c0.12,1.11,0.64,1.99,1.56,2.65c0.92,0.65,2.15,0.98,3.7,0.98c0.99,0,1.96-0.09,2.92-0.27
			s1.73-0.4,2.34-0.67l0.72,4.38c-0.29,0.15-0.68,0.29-1.16,0.44c-0.48,0.14-1.02,0.27-1.61,0.38c-0.59,0.11-1.23,0.2-1.9,0.27
			c-0.68,0.07-1.35,0.11-2.03,0.11c-1.71,0-3.21-0.25-4.47-0.76c-1.27-0.51-2.32-1.2-3.15-2.08s-1.45-1.93-1.85-3.13
			C44.69,63.37,44.49,62.07,44.49,60.66z M57.18,58.6c-0.02-0.46-0.1-0.91-0.24-1.34c-0.13-0.44-0.34-0.82-0.62-1.16
			c-0.28-0.34-0.63-0.62-1.05-0.83c-0.42-0.22-0.95-0.33-1.58-0.33c-0.6,0-1.12,0.1-1.56,0.31c-0.43,0.21-0.8,0.48-1.09,0.82
			c-0.29,0.34-0.51,0.73-0.67,1.18c-0.16,0.45-0.27,0.9-0.34,1.36H57.18z"/>
		<path class="st0" d="M82.29,44.94c0.44,0.8,0.94,1.78,1.51,2.95c0.57,1.17,1.16,2.44,1.78,3.8c0.62,1.37,1.23,2.76,1.83,4.19
			c0.6,1.43,1.17,2.77,1.71,4.02c0.53-1.26,1.1-2.6,1.71-4.02c0.6-1.42,1.22-2.82,1.83-4.19c0.62-1.36,1.21-2.63,1.78-3.8
			c0.57-1.17,1.07-2.16,1.51-2.95h5.15c0.24,1.67,0.46,3.53,0.67,5.6c0.21,2.06,0.39,4.22,0.54,6.45c0.16,2.23,0.3,4.48,0.43,6.72
			c0.13,2.25,0.25,4.36,0.34,6.34h-5.51c-0.07-2.44-0.17-5.1-0.29-7.97c-0.12-2.87-0.3-5.77-0.54-8.7
			c-0.44,1.01-0.92,2.14-1.45,3.37c-0.53,1.23-1.06,2.46-1.58,3.7c-0.52,1.23-1.02,2.41-1.51,3.53c-0.48,1.12-0.9,2.08-1.24,2.88
			h-3.95c-0.34-0.8-0.75-1.76-1.24-2.88c-0.49-1.12-0.99-2.3-1.51-3.53c-0.52-1.23-1.05-2.46-1.58-3.7
			c-0.53-1.23-1.02-2.35-1.45-3.37c-0.24,2.92-0.42,5.82-0.54,8.7c-0.12,2.88-0.22,5.53-0.29,7.97h-5.51
			c0.1-1.98,0.21-4.09,0.34-6.34c0.13-2.25,0.28-4.49,0.44-6.72c0.16-2.23,0.34-4.38,0.54-6.45c0.21-2.07,0.43-3.93,0.67-5.6H82.29z
			"/>
		<path class="st0" d="M114.61,50.48c1.59,0,2.92,0.18,3.99,0.54c1.06,0.36,1.92,0.88,2.55,1.56c0.64,0.68,1.09,1.5,1.36,2.46
			c0.27,0.97,0.4,2.04,0.4,3.23v11.23c-0.77,0.17-1.85,0.37-3.22,0.6c-1.38,0.23-3.04,0.34-5,0.34c-1.23,0-2.35-0.11-3.35-0.33
			c-1-0.22-1.87-0.57-2.59-1.07c-0.72-0.49-1.28-1.14-1.67-1.94c-0.39-0.8-0.58-1.78-0.58-2.94c0-1.11,0.22-2.05,0.67-2.83
			c0.45-0.77,1.04-1.39,1.79-1.85c0.75-0.46,1.61-0.79,2.57-1c0.97-0.21,1.97-0.31,3.01-0.31c0.7,0,1.32,0.03,1.87,0.09
			c0.54,0.06,0.98,0.14,1.32,0.24v-0.51c0-0.92-0.28-1.65-0.83-2.21c-0.56-0.56-1.52-0.83-2.9-0.83c-0.92,0-1.82,0.07-2.72,0.2
			c-0.89,0.13-1.67,0.32-2.32,0.56l-0.69-4.35c0.31-0.1,0.71-0.2,1.18-0.31c0.47-0.11,0.98-0.21,1.54-0.29
			c0.55-0.08,1.14-0.16,1.76-0.22C113.36,50.51,113.98,50.48,114.61,50.48z M115.04,66.28c0.53,0,1.04-0.01,1.52-0.04
			c0.48-0.02,0.87-0.06,1.16-0.11v-4.09c-0.22-0.05-0.54-0.1-0.98-0.15c-0.43-0.05-0.83-0.07-1.2-0.07c-0.51,0-0.98,0.03-1.43,0.09
			c-0.45,0.06-0.84,0.18-1.18,0.34c-0.34,0.17-0.6,0.4-0.8,0.69c-0.19,0.29-0.29,0.65-0.29,1.09c0,0.85,0.28,1.43,0.85,1.76
			S114.05,66.28,115.04,66.28z"/>
		<path class="st0" d="M144.25,67.66c0,3.12-0.79,5.43-2.37,6.94c-1.58,1.51-4.03,2.26-7.34,2.26c-1.16,0-2.32-0.1-3.48-0.31
			c-1.16-0.21-2.23-0.48-3.22-0.81l0.94-4.53c0.85,0.34,1.73,0.6,2.66,0.8s1.99,0.29,3.17,0.29c1.55,0,2.64-0.34,3.28-1.01
			c0.64-0.68,0.96-1.55,0.96-2.61v-0.69c-0.58,0.27-1.18,0.47-1.79,0.6c-0.62,0.13-1.29,0.2-2.01,0.2c-2.63,0-4.65-0.78-6.05-2.34
			c-1.4-1.56-2.1-3.74-2.1-6.54c0-1.4,0.22-2.68,0.65-3.82c0.43-1.15,1.07-2.13,1.9-2.95c0.83-0.82,1.85-1.46,3.06-1.9
			c1.21-0.45,2.57-0.67,4.09-0.67c0.65,0,1.32,0.03,2.01,0.09c0.69,0.06,1.37,0.14,2.05,0.24c0.68,0.1,1.32,0.21,1.94,0.34
			c0.62,0.13,1.17,0.27,1.65,0.42V67.66z M132.4,59.9c0,3.02,1.22,4.53,3.66,4.53c0.56,0,1.07-0.07,1.56-0.22
			c0.48-0.15,0.89-0.31,1.23-0.51v-8.62c-0.27-0.05-0.58-0.09-0.94-0.13s-0.79-0.05-1.27-0.05c-1.43,0-2.49,0.47-3.19,1.41
			C132.75,57.26,132.4,58.45,132.4,59.9z"/>
		<path class="st0" d="M149.32,51.64c0.92-0.27,2.1-0.51,3.55-0.74s2.97-0.34,4.57-0.34c1.62,0,2.96,0.21,4.04,0.63
			c1.07,0.42,1.93,1.02,2.55,1.79c0.63,0.77,1.07,1.69,1.34,2.75c0.27,1.06,0.4,2.25,0.4,3.55v10.76h-5.4V59.94
			c0-1.74-0.23-2.97-0.69-3.7s-1.32-1.09-2.57-1.09c-0.39,0-0.8,0.02-1.23,0.05s-0.82,0.08-1.16,0.13v14.71h-5.4V51.64z"/>
		<path class="st0" d="M169.75,60.66c0-1.69,0.26-3.17,0.78-4.44c0.52-1.27,1.2-2.32,2.05-3.17c0.85-0.85,1.82-1.49,2.92-1.92
			c1.1-0.44,2.23-0.65,3.39-0.65c2.71,0,4.84,0.83,6.41,2.48c1.57,1.66,2.36,4.09,2.36,7.3c0,0.31-0.01,0.66-0.04,1.03
			c-0.02,0.38-0.05,0.71-0.07,1H175.3c0.12,1.11,0.64,1.99,1.56,2.65s2.15,0.98,3.7,0.98c0.99,0,1.96-0.09,2.92-0.27
			c0.95-0.18,1.73-0.4,2.34-0.67l0.72,4.38c-0.29,0.15-0.68,0.29-1.16,0.44c-0.48,0.14-1.02,0.27-1.61,0.38
			c-0.59,0.11-1.23,0.2-1.9,0.27c-0.68,0.07-1.35,0.11-2.03,0.11c-1.72,0-3.21-0.25-4.48-0.76c-1.27-0.51-2.32-1.2-3.15-2.08
			c-0.83-0.88-1.45-1.93-1.85-3.13C169.95,63.37,169.75,62.07,169.75,60.66z M182.44,58.6c-0.02-0.46-0.1-0.91-0.24-1.34
			c-0.13-0.44-0.34-0.82-0.62-1.16c-0.28-0.34-0.63-0.62-1.05-0.83c-0.42-0.22-0.95-0.33-1.58-0.33c-0.6,0-1.12,0.1-1.56,0.31
			c-0.43,0.21-0.8,0.48-1.09,0.82c-0.29,0.34-0.51,0.73-0.67,1.18c-0.16,0.45-0.27,0.9-0.34,1.36H182.44z"/>
		<path class="st0" d="M191.64,46.24l5.4-0.87v5.62h6.49v4.49h-6.49v6.7c0,1.14,0.2,2.04,0.6,2.72c0.4,0.68,1.2,1.01,2.41,1.01
			c0.58,0,1.18-0.05,1.79-0.16c0.62-0.11,1.18-0.26,1.69-0.45l0.76,4.2c-0.65,0.27-1.38,0.5-2.17,0.69
			c-0.8,0.19-1.78,0.29-2.94,0.29c-1.47,0-2.69-0.2-3.66-0.6c-0.97-0.4-1.74-0.95-2.32-1.67c-0.58-0.71-0.98-1.58-1.21-2.59
			s-0.34-2.14-0.34-3.37V46.24z"/>
		<path class="st0" d="M216.86,48.53h2.11v21.52h-2.11V48.53z"/>
		<path class="st0" d="M224.44,54.55c0.6-0.17,1.41-0.35,2.42-0.56c1.01-0.21,2.26-0.31,3.73-0.31c1.22,0,2.24,0.18,3.06,0.53
			c0.82,0.35,1.47,0.85,1.96,1.51s0.83,1.43,1.04,2.34c0.21,0.91,0.31,1.92,0.31,3.01v8.98h-2.02v-8.32c0-1.14-0.08-2.1-0.23-2.89
			c-0.16-0.79-0.41-1.43-0.78-1.93c-0.36-0.5-0.84-0.85-1.43-1.07s-1.33-0.33-2.22-0.33c-0.95,0-1.78,0.05-2.47,0.16
			c-0.69,0.1-1.14,0.2-1.35,0.28v14.1h-2.02V54.55z"/>
		<path class="st0" d="M245.4,68.62c1.16,0,2.12-0.19,2.87-0.57c0.76-0.38,1.13-1.03,1.13-1.94c0-0.43-0.07-0.81-0.2-1.12
			s-0.36-0.59-0.67-0.84c-0.31-0.25-0.72-0.49-1.23-0.71c-0.51-0.23-1.13-0.5-1.88-0.81c-0.6-0.25-1.17-0.5-1.71-0.76
			c-0.54-0.26-1.01-0.56-1.43-0.9c-0.41-0.34-0.75-0.75-0.99-1.23c-0.25-0.48-0.37-1.06-0.37-1.74c0-1.3,0.49-2.36,1.47-3.17
			s2.33-1.21,4.05-1.21c1.1,0,2,0.09,2.72,0.28c0.71,0.19,1.22,0.35,1.51,0.5l-0.47,1.8c-0.25-0.12-0.67-0.29-1.26-0.5
			c-0.59-0.21-1.46-0.31-2.59-0.31c-0.46,0-0.88,0.05-1.29,0.14c-0.4,0.09-0.76,0.24-1.07,0.44c-0.31,0.2-0.56,0.45-0.75,0.75
			s-0.28,0.67-0.28,1.1c0,0.44,0.08,0.81,0.25,1.12c0.17,0.31,0.41,0.59,0.73,0.82c0.32,0.24,0.71,0.46,1.18,0.67
			c0.47,0.21,1,0.43,1.6,0.68c0.62,0.25,1.22,0.5,1.79,0.76s1.07,0.57,1.51,0.93c0.43,0.36,0.79,0.8,1.06,1.3
			c0.27,0.51,0.4,1.14,0.4,1.91c0,1.45-0.54,2.55-1.63,3.29c-1.09,0.75-2.57,1.12-4.46,1.12c-1.41,0-2.48-0.12-3.23-0.36
			c-0.75-0.24-1.24-0.42-1.49-0.54l0.53-1.83c0.06,0.04,0.2,0.11,0.4,0.2c0.21,0.09,0.49,0.2,0.84,0.31
			c0.35,0.11,0.77,0.21,1.26,0.3C244.2,68.58,244.76,68.62,245.4,68.62z"/>
		<path class="st0" d="M257.3,53.99h6.4v1.71h-6.4v8.54c0,0.91,0.08,1.65,0.23,2.22s0.38,1.01,0.67,1.32s0.64,0.52,1.06,0.62
			c0.41,0.1,0.87,0.16,1.37,0.16c0.85,0,1.53-0.1,2.05-0.29s0.92-0.38,1.21-0.54l0.5,1.68c-0.29,0.19-0.8,0.4-1.52,0.64
			c-0.73,0.24-1.51,0.36-2.36,0.36c-0.99,0-1.83-0.13-2.5-0.39c-0.67-0.26-1.21-0.65-1.62-1.18c-0.4-0.53-0.69-1.19-0.85-1.97
			c-0.17-0.79-0.25-1.72-0.25-2.8V49.27l2.02-0.37V53.99z"/>
		<path class="st0" d="M269.91,49.15c0,0.48-0.14,0.85-0.43,1.13c-0.29,0.28-0.64,0.42-1.06,0.42c-0.42,0-0.77-0.14-1.06-0.42
			c-0.29-0.28-0.43-0.66-0.43-1.13c0-0.48,0.14-0.85,0.43-1.13c0.29-0.28,0.64-0.42,1.06-0.42c0.41,0,0.77,0.14,1.06,0.42
			C269.76,48.29,269.91,48.67,269.91,49.15z M269.44,70.05h-2.02V53.99h2.02V70.05z"/>
		<path class="st0" d="M276.68,53.99h6.4v1.71h-6.4v8.54c0,0.91,0.08,1.65,0.23,2.22s0.38,1.01,0.67,1.32s0.64,0.52,1.06,0.62
			c0.41,0.1,0.87,0.16,1.37,0.16c0.85,0,1.53-0.1,2.05-0.29s0.92-0.38,1.21-0.54l0.5,1.68c-0.29,0.19-0.8,0.4-1.52,0.64
			c-0.73,0.24-1.51,0.36-2.36,0.36c-0.99,0-1.83-0.13-2.5-0.39c-0.67-0.26-1.21-0.65-1.62-1.18c-0.4-0.53-0.69-1.19-0.85-1.97
			c-0.17-0.79-0.25-1.72-0.25-2.8V49.27l2.02-0.37V53.99z"/>
		<path class="st0" d="M299.13,69.49c-0.6,0.17-1.41,0.35-2.42,0.56s-2.26,0.31-3.73,0.31c-1.2,0-2.21-0.18-3.01-0.53
			c-0.81-0.35-1.46-0.85-1.96-1.49c-0.5-0.64-0.85-1.42-1.07-2.33c-0.22-0.91-0.33-1.91-0.33-3.01v-9.01h2.02v8.35
			c0,1.14,0.08,2.1,0.25,2.89c0.17,0.79,0.43,1.42,0.81,1.91c0.37,0.49,0.85,0.84,1.44,1.06c0.59,0.22,1.31,0.33,2.16,0.33
			c0.95,0,1.78-0.05,2.48-0.16c0.7-0.1,1.15-0.2,1.34-0.28v-14.1h2.02V69.49z"/>
		<path class="st0" d="M306.37,53.99h6.4v1.71h-6.4v8.54c0,0.91,0.08,1.65,0.23,2.22s0.38,1.01,0.67,1.32s0.64,0.52,1.06,0.62
			c0.41,0.1,0.87,0.16,1.37,0.16c0.85,0,1.53-0.1,2.05-0.29s0.92-0.38,1.21-0.54l0.5,1.68c-0.29,0.19-0.8,0.4-1.52,0.64
			c-0.73,0.24-1.51,0.36-2.36,0.36c-0.99,0-1.83-0.13-2.5-0.39c-0.67-0.26-1.21-0.65-1.62-1.18c-0.4-0.53-0.69-1.19-0.85-1.97
			c-0.17-0.79-0.25-1.72-0.25-2.8V49.27l2.02-0.37V53.99z"/>
		<path class="st0" d="M315.53,62c0-1.41,0.2-2.63,0.61-3.68c0.4-1.05,0.93-1.92,1.58-2.62c0.65-0.7,1.4-1.23,2.24-1.57
			s1.7-0.51,2.59-0.51c1.97,0,3.54,0.64,4.71,1.93c1.17,1.28,1.75,3.26,1.75,5.93c0,0.17-0.01,0.33-0.02,0.5
			c-0.01,0.17-0.03,0.32-0.05,0.47h-11.27c0.06,1.97,0.55,3.48,1.46,4.53s2.36,1.58,4.35,1.58c1.1,0,1.97-0.1,2.61-0.31
			s1.11-0.38,1.4-0.53l0.37,1.74c-0.29,0.17-0.83,0.36-1.63,0.59s-1.73,0.34-2.81,0.34c-1.41,0-2.61-0.21-3.6-0.62
			c-0.99-0.41-1.81-0.99-2.45-1.74c-0.64-0.75-1.11-1.63-1.4-2.66S315.53,63.23,315.53,62z M326.93,60.73
			c-0.04-1.68-0.43-2.98-1.18-3.91c-0.75-0.93-1.8-1.4-3.17-1.4c-0.72,0-1.37,0.15-1.94,0.43c-0.57,0.29-1.07,0.68-1.49,1.16
			c-0.42,0.49-0.76,1.05-0.99,1.69c-0.24,0.64-0.38,1.31-0.42,2.02H326.93z"/>
	</g>
</g>
</svg>
